<svg width="187" height="205" viewBox="0 0 187 205" fill="none" xmlns="http://www.w3.org/2000/svg">
<path d="M132.858 114.206C135.852 114.156 138.874 114.486 141.783 113.621C143.901 113.545 146.076 113.697 148.166 113.367C152.12 112.756 154.831 114.156 157.09 116.905C161.157 121.868 165.309 126.755 169.461 131.667C170.336 132.711 171.296 133.703 172.37 134.594C173.753 135.74 175.589 135.867 177.086 135.129C178.809 134.289 177.34 132.965 177.03 131.922C176.634 130.547 176.013 129.249 175.533 127.9C175.279 127.137 174.205 126.22 175.9 125.711C176.465 126.017 177.03 126.449 177.651 126.577C179.063 126.857 180.814 127.188 181.831 126.373C182.848 125.559 181.52 124.362 181.125 123.37C178.837 117.541 176.408 111.738 174.036 105.909C173.603 102.939 175.024 100.886 178.301 99.7492C178.809 99.571 179.261 99.2656 179.769 99.0111C181.012 99.0111 182.254 99.0111 183.497 98.9347C184.599 98.8838 186.18 98.9856 186.067 97.6875C186.011 96.9494 184.627 96.313 183.356 96.3639C181.097 96.4658 178.95 95.9567 176.719 95.5749C173.443 95.0149 172.963 93.5641 173.725 91.0952C175.73 84.6301 178.611 78.445 181.238 72.1836C181.605 71.2927 182.876 70.6055 182.226 69.511C181.464 68.2384 179.995 68.9765 178.837 68.8493C177.114 68.6711 176.239 69.7656 175.307 70.86C170.506 76.5106 165.676 82.1357 160.903 87.7863C158.926 90.128 156.525 91.5279 153.108 91.0952C150.99 90.8406 148.9 90.6116 146.782 90.4334C134.524 89.3644 122.211 89.7971 109.925 89.8734C106.593 89.8734 105.999 88.8299 106.112 86.2082C106.31 81.6521 107.27 77.2487 108.598 72.9217C110.829 65.6931 113.653 58.5917 115.715 51.363C117.438 45.2289 119.528 39.1965 121.25 33.0878C124.103 22.9575 127.52 12.9545 130.683 2.90052C131.559 0.0752359 131.107 -0.433828 127.944 0.304301C123.171 1.39878 119.895 4.12226 117.635 8.04202C109.445 22.2702 101.142 36.473 92.9513 50.7013C92.1323 52.1266 91.3698 52.8648 89.3363 52.3302C84.9587 51.1849 80.4116 51.2612 75.8928 51.4648C74.17 51.5667 74.1418 52.712 74.1418 53.832C74.1418 55.7409 74.0853 57.6245 74.057 59.5335C71.0916 59.788 70.1313 61.3915 70.329 63.8859C70.442 65.184 70.329 66.5076 70.329 67.8057C70.329 71.98 71.148 72.7945 75.7798 72.6672C77.8698 72.6163 78.7453 73.2017 78.3499 75.0852C73.1533 86.5391 68.8039 90.2043 55.7558 89.848C46.9724 89.5935 38.1889 89.848 29.4055 89.8225C21.6952 89.7716 14.4934 91.4261 7.71513 94.684C3.36577 96.7712 3.13982 97.8911 6.72664 100.742C6.303 102.422 4.46723 102.574 3.16807 103.287C1.75594 104.076 -0.108076 104.585 0.00489503 106.469C0.089623 108.251 1.84067 108.989 3.30928 109.625C10.6806 112.832 18.3908 114.766 26.6942 114.665C36.2684 114.563 45.8144 114.741 55.3887 114.614C62.5905 114.512 67.5047 117.617 70.8939 123.013C72.6167 125.737 74.057 128.613 75.6104 131.413C74.3112 132.176 74.0288 133.296 74.1135 134.594C74.283 136.885 74.2265 139.023 71.3457 140.169C70.4137 140.55 70.1031 141.543 70.1031 142.536C70.1031 145.285 70.0466 148.008 70.1031 150.757C70.1596 152.615 71.4305 154.295 73.351 153.837C75.2997 153.379 77.3897 153.659 79.2254 152.844C80.3551 152.768 81.5696 152.895 82.5863 152.539C86.6815 151.139 88.3196 153.15 90.0141 156.128C97.7808 169.719 105.774 183.235 113.71 196.751C115.574 199.958 118.087 202.605 122.154 203.597C123.623 203.954 125.402 204.997 126.588 203.776C127.577 202.783 126.617 201.256 126.193 200.009C125.91 199.143 125.628 198.252 125.402 197.361C125.12 196.165 125.487 195.351 127.04 195.325C128.198 194.536 131.644 197.412 130.825 193.722C129.356 187.078 127.068 180.613 125.035 174.123C123.453 169.083 121.787 163.967 120.064 158.902C117.918 152.59 116.308 146.074 114.218 139.787C111.789 132.558 109.502 125.279 107.129 118.024C107.016 116.905 106.903 115.785 106.79 114.665C109.389 114.665 111.987 114.716 114.557 114.665C120.601 114.512 126.701 115.148 132.717 114.232L132.858 114.206Z" fill="#2070FA"/>
<path d="M6.78334 100.768C3.22477 97.8914 3.42247 96.7969 7.77183 94.7098C14.5501 91.4518 21.7519 89.7973 29.4622 89.8483C38.2456 89.8992 47.0291 89.6446 55.8125 89.8737C68.8606 90.23 73.21 86.5648 78.4066 75.111C80.9485 71.4203 83.3773 67.6278 85.1284 63.5553C85.5238 63.0717 85.9474 62.639 86.2863 62.1299C86.8794 61.2645 87.5855 60.2719 86.7664 59.3555C85.8627 58.3374 85.0154 59.661 84.1116 59.7119C80.9767 59.8901 77.7006 61.01 74.9328 58.6429C75.1305 56.2248 74.2267 53.705 75.9213 51.4651C80.4401 51.2615 84.9871 51.1851 89.3648 52.356C91.3982 52.8905 92.1608 52.1524 92.9798 50.727C101.198 36.4988 109.473 22.296 117.664 8.06774C119.923 4.14798 123.199 1.39905 127.972 0.33002C131.136 -0.382665 131.616 0.100955 130.712 2.92624C127.549 12.9802 124.131 22.9832 121.279 33.1135C119.556 39.2477 117.466 45.28 115.743 51.3888C113.71 58.6174 110.886 65.7188 108.626 72.9475C107.271 77.2999 106.339 81.7033 106.141 86.2339C106.028 88.8556 106.621 89.9246 109.954 89.8992C122.239 89.8228 134.553 89.4155 146.81 90.4591C148.928 90.6373 151.047 90.8664 153.137 91.1209C156.554 91.5281 158.955 90.1282 160.932 87.812C165.705 82.1614 170.534 76.5363 175.335 70.8858C176.239 69.8167 177.143 68.6968 178.866 68.875C180.024 69.0022 181.492 68.2641 182.255 69.5367C182.904 70.6312 181.633 71.3185 181.266 72.2093C178.64 78.4707 175.759 84.6558 173.754 91.1209C172.991 93.5898 173.471 95.0407 176.747 95.6006C178.95 95.9824 181.125 96.4915 183.384 96.3897C184.655 96.3388 186.039 96.9751 186.096 97.7132C186.209 99.0113 184.627 98.9095 183.526 98.9604C182.283 99.0113 181.04 99.0113 179.798 99.0368L157.401 99.0368C157.345 99.2404 157.316 99.444 157.26 99.6222C158.955 100.666 160.621 101.709 162.4 102.778C160.536 103.949 158.361 103.364 156.78 104.484C152.205 104.866 147.658 105.222 143.082 105.604C130.74 105.705 118.398 105.807 106.056 105.909C93.2057 105.858 80.3554 105.807 67.505 105.782C66.9966 105.782 66.4882 106.138 65.9799 106.342C65.5562 106.342 65.1326 106.342 64.709 106.342C64.3418 106.291 64.0029 106.24 63.6357 106.189C56.0102 105.247 48.3565 105.731 40.7027 105.833C29.0103 105.985 17.4591 105.833 6.7551 100.768L6.78334 100.768ZM13.7028 98.4005C12.8555 98.5532 11.867 98.3496 12.1494 99.3168C12.6013 100.869 13.7028 101.964 15.5668 102.269C16.2729 102.397 16.5835 102.015 16.5835 101.429C16.527 99.5967 14.6913 99.2913 13.7028 98.4005ZM15.1996 93.3862C14.3806 94.2771 12.5448 94.5571 12.1212 96.2115C11.8953 97.1278 12.799 97.2042 13.3639 97.0769C14.889 96.746 16.0752 95.9061 16.5553 94.5316C16.753 93.9716 16.6118 93.2844 15.1996 93.3608L15.1996 93.3862Z" fill="#F9FCFB"/>
<path d="M107.242 118.024C109.586 125.278 111.902 132.558 114.331 139.786C116.449 146.099 118.031 152.589 120.177 158.902C121.9 163.941 123.567 169.057 125.148 174.123C127.182 180.613 129.469 187.104 130.938 193.721C131.757 197.438 128.311 194.536 127.153 195.325C122.945 193.798 119.838 191.227 117.72 187.562C110.518 175.09 103.175 162.694 95.8887 150.273C94.4484 147.702 93.4881 144.877 91.1722 142.739C90.6639 141.365 90.8898 138.87 88.3197 139.761C84.8741 140.957 81.4568 140.245 78.0394 140.525C76.4296 140.652 75.5823 139.786 74.9045 138.641C74.9045 134.348 77.2392 132.1 81.9087 131.896C81.9087 131.896 82.1346 131.845 82.2476 131.845C83.1796 131.794 84.1681 132.38 85.1566 131.54C81.4568 125.151 77.7852 118.813 74.0854 112.475C74.961 111.33 76.3166 111.712 77.5028 111.686C80.9766 111.635 84.4787 111.865 87.9526 111.61C95.5216 111.075 102.243 112.323 107.214 118.024L107.242 118.024Z" fill="#F9FBFB"/>
<path d="M74.1137 112.451C77.7852 118.788 81.485 125.152 85.1848 131.515C84.168 132.329 83.1796 131.769 82.2758 131.82C80.1294 130.98 77.8699 131.617 75.6953 131.388C74.1137 128.588 72.6733 125.712 70.9505 122.988C67.5614 117.592 62.6472 114.487 55.4453 114.589C45.8711 114.716 36.3251 114.538 26.7508 114.639C18.4475 114.741 10.7372 112.807 3.36592 109.6C1.89731 108.963 0.146267 108.225 0.0615392 106.444C-0.0514314 104.56 1.81258 104.051 3.22471 103.262C4.52387 102.549 6.3314 102.397 6.78328 100.717C17.4872 105.807 29.0385 105.935 40.7309 105.782C48.3564 105.68 56.0384 105.196 63.6639 106.138C52.1974 106.138 40.7309 106.138 29.2926 106.138C29.5468 106.724 29.8293 106.876 30.0834 106.876C40.7874 106.876 51.4913 106.876 62.1953 106.876C63.0991 106.876 64.0028 106.876 64.7371 106.265C65.1608 106.265 65.5844 106.265 66.008 106.265C69.0582 107.92 72.052 109.651 74.1137 112.4L74.1137 112.451Z" fill="#19218B"/>
<path d="M95.9169 150.273C103.203 162.695 110.547 175.116 117.748 187.562C119.867 191.253 122.973 193.798 127.181 195.325C125.628 195.325 125.261 196.165 125.543 197.362C125.741 198.252 126.024 199.118 126.334 200.009C126.758 201.256 127.69 202.783 126.73 203.776C125.543 204.972 123.764 203.954 122.295 203.598C118.229 202.605 115.715 199.932 113.851 196.751C105.915 183.235 97.9221 169.72 90.1554 156.128C88.4608 153.15 86.8228 151.164 82.7276 152.539C81.7109 152.895 80.4964 152.742 79.395 152.844C77.5874 152.844 75.7799 152.844 74.0006 152.768C72.1649 152.717 70.9504 151.953 70.8939 150.223C70.8375 147.779 70.8657 145.336 70.8939 142.892C70.8939 141.899 71.4588 141.136 72.4755 140.729C73.69 140.27 74.396 140.83 74.9044 141.747C74.9891 143.885 76.5142 144.343 78.5477 144.394C82.5864 144.521 86.5403 143.707 90.5508 143.503C91.6805 144.597 92.6972 145.794 93.0644 147.295C93.4315 148.772 94.3353 149.79 95.9451 150.273L95.9169 150.273Z" fill="#18218C"/>
<path d="M143.082 105.629C147.657 105.247 152.204 104.891 156.78 104.509C158.248 105.553 159.745 106.571 161.214 107.614C166.128 113.647 171.014 119.679 175.928 125.711C174.233 126.22 175.307 127.162 175.561 127.9C176.013 129.249 176.662 130.547 177.058 131.922C177.368 132.991 178.837 134.315 177.114 135.129C175.617 135.842 173.782 135.74 172.398 134.594C171.324 133.704 170.364 132.711 169.489 131.667C165.337 126.78 161.185 121.868 157.118 116.905C154.859 114.13 152.119 112.73 148.194 113.367C146.104 113.698 143.957 113.545 141.811 113.621C141.274 113.469 140.709 113.163 140.201 113.239C132.124 114.232 124.018 113.418 115.912 113.672C113.879 113.723 111.846 113.621 109.84 113.672C106.931 113.774 107.468 111.738 107.214 110.261C106.875 108.327 108.626 108.811 109.699 108.785C112.749 108.709 115.799 108.836 118.821 108.734C121.533 108.658 124.301 109.167 126.984 107.716L108.456 107.716C108.456 107.462 108.456 107.207 108.456 106.927C115.291 106.927 122.098 106.953 128.932 106.927C131.502 106.927 134.298 106.011 136.586 106.673C139.89 107.64 142.602 107.182 145.68 105.833C144.663 105.756 143.873 105.68 143.11 105.604L143.082 105.629Z" fill="#18208D"/>
<path d="M74.1134 112.45C72.0517 109.726 69.058 107.996 66.0078 106.316C66.5162 106.112 67.0245 105.756 67.5047 105.756C80.3551 105.756 93.2054 105.832 106.056 105.883C106.338 108.657 105.745 111.483 106.847 114.181C106.847 114.333 106.847 114.461 106.903 114.613C107.016 115.733 107.129 116.853 107.242 117.973C102.271 112.297 95.5496 111.024 87.9806 111.559C84.5067 111.814 81.0046 111.559 77.5308 111.635C76.3446 111.635 75.0172 111.279 74.1134 112.424L74.1134 112.45Z" fill="#81AFF6"/>
<path d="M175.928 125.711C171.014 119.679 166.128 113.647 161.214 107.614C162.287 106.571 163.389 105.731 165.168 105.782C168.133 105.883 171.099 105.883 174.064 105.934C176.437 111.738 178.837 117.541 181.153 123.395C181.549 124.362 182.876 125.584 181.859 126.399C180.842 127.213 179.091 126.882 177.679 126.602C177.058 126.475 176.521 126.042 175.928 125.737L175.928 125.711Z" fill="#F3F8F9"/>
<path d="M85.1565 63.5293C83.3773 67.6018 80.9766 71.3688 78.4348 75.085C78.8302 73.2014 77.9829 72.616 75.8647 72.6669C71.2047 72.7942 70.4139 71.9797 70.4139 67.8054C70.4139 66.5073 70.5269 65.1837 70.4139 63.8856C70.188 61.3658 71.1482 59.7877 74.1419 59.5332C74.3679 59.6859 74.6221 59.8386 74.848 59.9913C74.5656 62.8421 75.9212 64.1402 79.1409 63.8856C81.1461 63.7329 83.1513 63.6566 85.1565 63.5293Z" fill="#17218E"/>
<path d="M174.093 105.934C171.127 105.883 168.162 105.883 165.196 105.782C163.445 105.705 162.315 106.571 161.242 107.614C159.774 106.571 158.277 105.553 156.808 104.509C158.361 103.364 160.536 103.974 162.428 102.804C160.649 101.709 158.983 100.666 157.288 99.6475C157.345 99.4438 157.373 99.2402 157.429 99.062L179.826 99.062C179.346 99.3166 178.894 99.622 178.357 99.8002C175.081 100.937 173.66 102.99 174.093 105.96L174.093 105.934Z" fill="#7CADF7"/>
<path d="M106.847 114.232C105.745 111.534 106.339 108.708 106.056 105.934C118.398 105.832 130.74 105.73 143.082 105.629C143.873 105.705 144.636 105.756 145.652 105.858C142.574 107.207 139.863 107.639 136.558 106.698C134.271 106.036 131.475 106.927 128.904 106.952C122.07 107.003 115.263 106.952 108.429 106.952C108.429 107.207 108.429 107.461 108.429 107.741L126.956 107.741C124.301 109.192 121.505 108.683 118.794 108.759C115.743 108.861 112.721 108.759 109.671 108.81C108.57 108.81 106.847 108.352 107.186 110.287C107.44 111.763 106.903 113.799 109.812 113.697C111.846 113.621 113.879 113.748 115.885 113.697C123.99 113.443 132.096 114.257 140.173 113.265C140.682 113.214 141.246 113.519 141.783 113.646C138.846 114.512 135.824 114.181 132.858 114.232C124.188 114.232 115.517 114.232 106.847 114.232Z" fill="#1A2581"/>
<path d="M74.8477 141.747C74.3393 140.83 73.6332 140.27 72.4188 140.729C71.4021 141.136 70.8372 141.899 70.8372 142.892C70.809 145.336 70.7807 147.779 70.8372 150.223C70.8937 151.979 72.1081 152.742 73.9439 152.768C75.7514 152.819 77.559 152.819 79.3382 152.844C77.5025 153.659 75.4125 153.379 73.4638 153.837C71.5433 154.295 70.2724 152.615 70.2159 150.757C70.1312 148.008 70.2159 145.285 70.2159 142.536C70.2159 141.568 70.5265 140.55 71.4586 140.169C74.3111 139.023 74.3958 136.885 74.2263 134.594C74.1416 133.296 74.424 132.176 75.7232 131.413C77.9261 131.642 80.1855 131.006 82.3037 131.845C82.1908 131.845 82.0778 131.896 81.9648 131.896C77.3142 132.1 74.9795 134.348 74.9606 138.641C74.9606 139.685 74.9042 140.703 74.8759 141.747L74.8477 141.747Z" fill="#406BBD"/>
<path d="M74.8193 59.9663C74.5934 59.8136 74.3392 59.6609 74.1133 59.5082C74.1133 57.5992 74.1698 55.7157 74.198 53.8067C74.198 52.6613 74.198 51.5414 75.9491 51.4396C74.2545 53.6794 75.1583 56.2247 74.9888 58.6173C74.9323 59.0755 74.9041 59.5082 74.8476 59.9663L74.8193 59.9663Z" fill="#406BBD"/>
<path d="M64.7086 106.316C63.9743 106.927 63.0706 106.927 62.1668 106.927C51.4629 106.927 40.7589 106.927 30.055 106.927C29.7725 106.927 29.4901 106.774 29.2642 106.189C40.7307 106.189 52.1972 106.189 63.6354 106.189C64.0026 106.24 64.3415 106.29 64.7086 106.341L64.7086 106.316Z" fill="#0D147F"/>
<path d="M74.8477 141.747C74.8477 140.703 74.9041 139.685 74.9324 138.641C75.6102 139.761 76.4575 140.652 78.0673 140.525C81.4847 140.245 84.902 140.958 88.3476 139.761C90.9177 138.87 90.6918 141.365 91.2001 142.739C90.9742 142.994 90.7482 143.248 90.5223 143.503C86.5119 143.707 82.5579 144.521 78.5192 144.394C76.4857 144.317 74.9889 143.859 74.8759 141.747L74.8477 141.747Z" fill="#7FAEF2"/>
<path d="M90.4941 143.503C90.7201 143.248 90.946 142.994 91.172 142.739C93.4879 144.852 94.4763 147.677 95.8885 150.273C94.2504 149.815 93.3749 148.797 93.0077 147.295C92.6123 145.794 91.6238 144.597 90.4941 143.503Z" fill="#2C2D77"/>
</svg>
